<?xml version="1.0" encoding="utf-8"?>
<!-- Generator: Adobe Illustrator 21.1.0, SVG Export Plug-In . SVG Version: 6.00 Build 0)  -->
<svg version="1.1" xmlns="http://www.w3.org/2000/svg" xmlns:xlink="http://www.w3.org/1999/xlink" x="0px" y="0px"
	 viewBox="0 0 504.8 72" style="enable-background:new 0 0 504.8 72;" xml:space="preserve">
<style type="text/css">
	.st0{fill:none;stroke:#FFFFFF;stroke-miterlimit:10;}
</style>
<g id="Layer_1">
	<polyline class="st0" points="0.3,27.5 72.3,10.5 137.3,36.5 179.3,29.5 210.3,0.5 251.3,4.5 299.3,24.5 378.3,36.5 422.3,21.5 
		457.3,35.5 494.3,10.5 504.3,27.5 	"/>
	<polyline class="st0" points="0.3,71.5 55.3,46.5 111.3,58.5 171.3,46.5 205.3,36.5 262.3,46.5 292.3,40.5 350.3,62.5 419.3,46.5 
		474.3,53.5 486.3,30.5 504.3,71.5 	"/>
</g>
<g id="Layer_3">
	<polyline class="st0" points="0.3,71.5 71.3,12.5 55.3,46.5 137.3,36.5 171.3,45.5 179.3,30.5 205.3,36.5 210.3,1.5 261.3,45.5 
		252.3,5.5 292.3,40.5 378.3,36.5 353.3,60.5 422.3,22.5 419.3,46.5 457.3,35.5 486.3,30.5 494.3,11.5 504.3,71.5 504.3,27.5 	"/>
</g>
</svg>
