<?xml version="1.0" encoding="utf-8"?>
<!-- Generator: Adobe Illustrator 21.1.0, SVG Export Plug-In . SVG Version: 6.00 Build 0)  -->
<svg version="1.1" xmlns="http://www.w3.org/2000/svg" xmlns:xlink="http://www.w3.org/1999/xlink" x="0px" y="0px"
	 viewBox="0 0 811.3 558.5" style="enable-background:new 0 0 811.3 558.5;" xml:space="preserve">
<style type="text/css">
	.st0{fill:none;stroke:#FFFFFF;stroke-width:3;stroke-miterlimit:10;}
</style>
<g id="Layer_2">
	<polygon class="st0" points="146.5,222.4 175.8,214.4 146.5,197.1 112.8,214.1 94,248.6 117.3,275.6 174.5,270.1 226.3,256.6 
		262,267.1 221.3,283.4 151.8,309.6 107.5,323.9 52,314.1 36,276.1 48.8,283.4 61.3,298.1 82.5,305.6 68.8,268.1 46.8,250.1 
		3,260.5 1.5,310.4 32.5,354.6 98.5,366.6 154,363.9 214.3,352.4 275.5,340.1 381.8,291.9 355.5,345.9 299.3,398.9 269.5,444.1 
		198.3,475.1 138.5,470.1 193.8,448.1 155.5,439.1 114.3,439.1 95,492.6 159.5,526.9 224.8,508.9 310,458.6 371.8,392.1 422,363.4 
		474.8,299.9 495.5,340.1 506.3,392.4 449.3,394.4 401.8,389.6 336.8,435.9 336.8,523.1 380.3,556.9 442.8,540.9 385.3,532.4 
		358,496.9 372.8,451.1 435.8,430.4 499,443.1 553.5,417.6 556.5,309.1 602.3,336.9 641.8,334.9 688.5,373.4 746.5,398.6 767,419.4 
		716,425.1 673.3,410.9 632.8,422.1 667.5,429.9 713,444.4 790.8,448.9 809.5,410.1 768,365.1 708.5,323.4 667.8,283.4 617.5,263.9 
		583,220.9 592,204.1 648.8,253.4 730.5,256.4 774.5,227.6 798.5,169.1 767.3,81.1 722.5,35.9 661.5,22.1 603,6.6 569.5,14.6 
		533.3,11.1 520,1.6 484.8,12.1 481.8,23.1 465.3,22.9 442.3,50.4 443.8,78.1 454.8,90.1 420.5,134.9 401.8,163.9 340.3,122.4 
		281.8,117.4 214,142.6 198,186.1 236.8,210.9 215.8,176.1 227.3,151.4 278,139.9 334.3,149.4 357.8,184.6 286.3,211.1 241,226.4 
		187.5,238.9 151.8,248.1 	"/>
</g>
<g id="Layer_3">
	<polyline class="st0" points="94,248.6 146.5,222.4 146.5,197.1 	"/>
	<line class="st0" x1="112.8" y1="214.1" x2="146.5" y2="222.4"/>
	<line class="st0" x1="117.3" y1="275.6" x2="151.8" y2="248.1"/>
	<line class="st0" x1="174.5" y1="270.1" x2="187.5" y2="238.9"/>
	<line class="st0" x1="226.3" y1="256.6" x2="241" y2="226.4"/>
	<polyline class="st0" points="286.3,211.1 262,267.1 306.3,251.4 357.8,184.6 384.5,191.4 425,239.1 469,239.1 562.3,223.6 	"/>
	<line class="st0" x1="275.5" y1="340.1" x2="221.3" y2="283.4"/>
	<line class="st0" x1="151.8" y1="309.6" x2="214.3" y2="352.4"/>
	<line class="st0" x1="98.5" y1="366.6" x2="107.5" y2="323.9"/>
	<path class="st0" d="M154,363.9"/>
	<line class="st0" x1="32.5" y1="354.6" x2="52" y2="314.1"/>
	<polyline class="st0" points="1.5,310.4 36,276.1 3,260.5 	"/>
	<line class="st0" x1="48.8" y1="283.4" x2="68.8" y2="268.1"/>
	<line class="st0" x1="371.8" y1="392.1" x2="355.5" y2="345.9"/>
	<line class="st0" x1="299.3" y1="398.9" x2="310" y2="458.6"/>
	<line class="st0" x1="224.8" y1="508.9" x2="269.5" y2="444.1"/>
	<line class="st0" x1="159.5" y1="526.9" x2="198.3" y2="475.1"/>
	<polyline class="st0" points="95,492.6 138.5,470.1 155.5,439.1 	"/>
	<line class="st0" x1="336.8" y1="435.9" x2="358" y2="496.9"/>
	<polyline class="st0" points="380.3,556.9 385.3,532.4 336.8,523.1 	"/>
	<line class="st0" x1="372.8" y1="451.1" x2="401.8" y2="389.6"/>
	<line class="st0" x1="435.8" y1="430.4" x2="449.3" y2="394.4"/>
	<polyline class="st0" points="495.5,340.1 556.5,309.1 506.3,392.4 499,443.1 	"/>
	<line class="st0" x1="641.8" y1="334.9" x2="667.8" y2="283.4"/>
	<polyline class="st0" points="583,220.9 562.3,223.6 556.5,309.1 617.5,263.9 	"/>
	<line class="st0" x1="688.5" y1="373.4" x2="708.5" y2="323.4"/>
	<line class="st0" x1="746.5" y1="398.6" x2="768" y2="365.1"/>
	<line class="st0" x1="767" y1="419.4" x2="809.5" y2="410.1"/>
	<line class="st0" x1="716" y1="425.1" x2="790.8" y2="448.9"/>
	<line class="st0" x1="713" y1="444.4" x2="673.3" y2="410.9"/>
	<polyline class="st0" points="730.5,256.4 699.2,211.9 657.5,155.9 694,89.4 661.5,22.1 582,78.9 	"/>
	<polyline class="st0" points="798.5,169.1 745,154.9 657.5,155.9 600,109.9 661.5,22.1 	"/>
	<polyline class="st0" points="722.5,35.9 694,89.4 745,154.9 699.2,211.9 774.5,227.6 745,154.9 767.3,81.1 694,89.4 600,109.9 	
		"/>
	<polyline class="st0" points="547.5,42.4 547.5,42.4 569.5,14.6 582,78.9 556.5,103.4 575.5,154.9 578.5,177.4 592,204.1 
		617.5,183.9 592.5,171.4 600,109.9 603,6.6 	"/>
	<polyline class="st0" points="657.5,155.9 651,220.9 592,204.1 	"/>
	<polygon class="st0" points="600,109.9 556.5,103.4 575.5,154.9 	"/>
	<polyline class="st0" points="541,75.4 582,78.9 600,109.9 	"/>
	<polyline class="st0" points="553.5,193.9 578.5,177.4 592.5,171.4 657.5,155.9 617.5,183.9 651,220.9 648.8,253.4 699.2,211.9 
		651,220.9 	"/>
	<polyline class="st0" points="541,158.4 575.5,154.9 592.5,171.4 	"/>
	<line class="st0" x1="484.8" y1="12.1" x2="495.5" y2="28.4"/>
	<polyline class="st0" points="481.8,23.1 475.5,43.9 490.1,78.9 493,134.9 556.5,103.4 511,86.4 519,65.9 493,50.9 495.5,28.4 
		520,19.9 520,1.6 	"/>
	<path class="st0" d="M465.3,22.9"/>
	<polyline class="st0" points="511,86.4 541,75.4 519,65.9 532,46.9 520,19.9 533.3,11.1 547.5,42.4 541,75.4 556.5,103.4 
		541,158.4 553.5,193.9 562.3,223.6 466,188.4 420.5,134.9 493,134.9 454.8,90.1 475.5,43.9 475.5,43.9 	"/>
	<polyline class="st0" points="556.5,309.1 474.8,299.9 381.8,291.9 422,363.4 	"/>
	<line class="st0" x1="381.8" y1="291.9" x2="306.3" y2="251.4"/>
	<polyline class="st0" points="384.5,191.4 381.8,291.9 425,239.1 474.8,299.9 	"/>
	<path class="st0" d="M227.3,151.4"/>
	<line class="st0" x1="214" y1="142.6" x2="227.3" y2="151.4"/>
	<line class="st0" x1="215.8" y1="176.1" x2="198" y2="186.1"/>
	<line class="st0" x1="278" y1="139.9" x2="281.8" y2="117.4"/>
	<line class="st0" x1="340.3" y1="122.4" x2="334.3" y2="149.4"/>
	<line class="st0" x1="357.8" y1="184.6" x2="401.8" y2="163.9"/>
	<polygon class="st0" points="573,200.9 566.8,211.4 578.3,213.4 582.5,204.1 	"/>
	<polygon class="st0" points="506.5,32.4 503.5,43.9 516,54.4 520,38.9 	"/>
	<line class="st0" x1="547.5" y1="42.4" x2="532" y2="46.9"/>
	<polyline class="st0" points="466,188.4 493,134.9 541,158.4 	"/>
	<polyline class="st0" points="465.3,22.9 475.5,43.9 443.8,78.1 	"/>
</g>
<g id="Layer_4">
	<line class="st0" x1="151.8" y1="248.1" x2="174.5" y2="270.1"/>
	<line class="st0" x1="187.5" y1="238.9" x2="226.3" y2="256.6"/>
	<polyline class="st0" points="275.5,340.1 306.3,251.7 286.3,211.1 	"/>
	<line class="st0" x1="221.3" y1="283.4" x2="214.3" y2="352.4"/>
	<path class="st0" d="M154,363.9"/>
	<line class="st0" x1="151.8" y1="309.6" x2="154" y2="363.9"/>
	<line class="st0" x1="52" y1="314.1" x2="1.5" y2="310.4"/>
	<line class="st0" x1="138.5" y1="470.1" x2="159.5" y2="526.9"/>
	<line class="st0" x1="198.3" y1="475.1" x2="224.8" y2="508.9"/>
	<polyline class="st0" points="269.5,444.1 310,458.6 299.3,398.9 371.8,392.1 	"/>
	<line class="st0" x1="355.5" y1="345.9" x2="422" y2="363.4"/>
	<line class="st0" x1="358" y1="496.9" x2="336.8" y2="523.1"/>
	<path class="st0" d="M397.9,534.3"/>
	<line class="st0" x1="372.8" y1="451.1" x2="336.8" y2="435.9"/>
	<polyline class="st0" points="553.5,417.6 506.3,392.4 435.8,430.4 401.8,389.6 	"/>
	<line class="st0" x1="708.5" y1="323.4" x2="746.5" y2="398.6"/>
	<polyline class="st0" points="790.8,448.9 767,419.4 768,365.1 	"/>
	<line class="st0" x1="716" y1="425.1" x2="713" y2="444.4"/>
	<line class="st0" x1="673.3" y1="410.9" x2="667.5" y2="429.9"/>
	<polyline class="st0" points="602.3,336.9 617.5,263.9 562.3,224.4 474.8,299.9 469.1,239.1 466,188.7 384.5,191.7 306.3,251.7 	
		"/>
	<polyline class="st0" points="475.8,44.6 491.4,50.5 490.1,79.1 511.8,86.7 493.5,134.4 	"/>
	<line class="st0" x1="454.8" y1="90.1" x2="490.1" y2="79.1"/>
	<line class="st0" x1="553.5" y1="193.1" x2="575.5" y2="155.1"/>
	<polyline class="st0" points="424.5,238.7 466,188.7 541,158.7 	"/>
	<line class="st0" x1="401.8" y1="163.9" x2="384.5" y2="191.7"/>
	<line class="st0" x1="278" y1="139.9" x2="340.3" y2="122.4"/>
	<line class="st0" x1="581.8" y1="79.1" x2="603" y2="6.6"/>
</g>
</svg>
